<svg fill="none" viewBox="0 0 226 226" xmlns="http://www.w3.org/2000/svg">
  <!-- Background circle -->
  <circle cx="113" cy="113" r="113" fill="#e2eeff"/>
  
  <!-- Globe pattern -->
  <path d="m113 0c31.66 0 60.28 13.02 80.8 34 19.92 20.37 32.2 48.25 32.2 79s-12.28 58.63-32.2 79l-.97.98c-20.44 20.4-48.66 33.02-79.83 33.02-31.17 0-59.39-12.62-79.83-33.02l-.97-.98C12.28 171.63 0 143.75 0 113S12.28 54.37 32.2 34C52.72 13.02 81.34 0 113 0zm0 174.5c-5.68 0-10.97.19-15.9.53 2.03 7.75 4.28 14.56 6.53 20.44 3.24 8.47 6.48 14.99 8.99 19.53h.65c2.47-4.53 5.64-11.04 8.82-19.5 2.22-5.89 4.44-12.72 6.43-20.49-4.82-.33-9.99-.51-15.53-.51zm26.61 1.58c-2.2 8.85-4.7 16.62-7.21 23.29-2.17 5.76-4.34 10.69-6.33 14.8.9-.12 1.79-.24 2.68-.38 5.3-2.85 11.34-6.75 17.37-12.05 6.03-5.29 12.12-12.02 17.49-20.55-6.47-2.05-14.39-3.88-24-5.1zm-53.58.05c-10.21 1.32-18.5 3.33-25.16 5.55 5.56 8.8 11.9 15.63 18.18 20.93 5.55 4.68 11.1 8.2 16.1 10.83 1.53.27 3.08.51 4.64.71-2.02-4.1-4.22-9.01-6.42-14.75-2.55-6.66-5.09-14.43-7.33-23.27zm88.05 9.04c-4.25 7.06-8.98 13.11-13.88 18.28 7.6-3.97 14.64-8.88 20.96-14.56-1.79-1.09-3.92-2.24-6.4-3.4l-.68-.31zm-123.57.66c-2.17 1.04-4.05 2.07-5.66 3.05 5.25 4.72 10.99 8.9 17.13 12.46-4.05-4.51-7.93-9.65-11.47-15.5zm139.41-67.33c-.67 23.32-5.56 42.02-12.64 56.96l.13.06c3.92 1.83 7.12 3.68 9.7 5.39 14.97-16.77 24.47-38.49 25.74-62.41zm-180.77 0c1.27 23.92 10.77 45.64 25.74 62.41 2.29-1.52 5.07-3.14 8.4-4.77-7.13-15.02-12.05-33.92-12.71-57.64zm32.45 0c.66 22.3 5.3 39.76 11.88 53.41 7.49-2.65 16.75-5.01 28.11-6.55-2.74-13.53-4.68-29.16-5.02-46.86zm103.36 0c-.33 17.68-2.23 33.29-4.93 46.8 10.79 1.44 19.7 3.62 27.01 6.08 6.57-13.62 11.22-30.93 11.89-52.89zm-57.39 0c.34 17.37 2.29 32.61 5.01 45.69 5.69-.44 11.83-.69 18.44-.69 6.45 0 12.45.24 18.03.66 2.67-13.07 4.58-28.3 4.92-45.66zM190.52 38.66c-2.65 1.51-5.89 3.2-9.69 4.93 7.45 15.17 12.65 34.33 13.34 58.41h22.93c-1.29-24.37-11.13-46.45-26.58-63.34zm-19.91 9.08c-7.44 2.68-16.28 5.16-26.45 6.88 2.75 13.64 4.7 29.45 5.04 47.38h33.97c-.69-22.7-5.64-40.43-12.56-54.25zM96.87 56.05c-2.74 13.13-4.72 28.46-5.06 45.94h46.39c-.34-17.46-2.27-32.77-4.97-45.9-5.65.57-11.65.9-17.98.9-6.48 0-12.61-.34-18.38-.94zm-38.47-8.86c-6.94 13.85-11.88 31.73-12.56 54.8h34.97c.34-17.95 2.33-33.78 5.14-47.44-10.69-1.83-19.9-4.51-27.55-7.36zM40 38.66C24.54 55.55 14.71 77.63 13.42 102h21.43c.68-24.48 5.9-43.83 13.4-59.07-3.18-1.5-5.94-2.95-8.25-4.27zM113 5.5c-2.52 4.53-5.75 11.05-8.99 19.53-2.23 5.82-4.46 12.57-6.48 20.23 4.99.47 10.27.74 15.84.74 5.44 0 10.6-.26 15.48-.71-1.98-7.69-4.18-14.46-6.38-20.29-3.18-8.46-6.35-14.97-8.82-19.5h-.65zm13.44.83c1.99 4.1 4.16 9.04 6.33 14.8 2.46 6.53 4.9 14.12 7.08 22.75 8.91-1.47 16.7-3.56 23.32-5.84-5.16-7.93-10.94-14.25-16.67-19.28-6.04-5.3-12.07-9.21-17.37-12.05-.89-.14-1.79-.26-2.68-.38zM100.16 6.34c-1.56.2-3.1.44-4.64.71-5 2.63-10.55 6.15-16.1 10.83-5.96 5.03-11.99 11.44-17.34 19.63 6.85 2.45 15.03 4.72 24.47 6.3 2.21-8.62 4.7-16.2 7.19-22.72 2.2-5.73 4.4-10.65 6.42-14.75zm60.41 10.7c4.58 4.83 9.01 10.42 13.04 16.9 2.55-1.14 4.82-2.26 6.81-3.31-6.04-5.27-12.69-9.84-19.85-13.58zm-98.21 2.11c-5.71 3.31-11.08 7.15-16.02 11.47 1.61.85 3.41 1.75 5.39 2.67 3.31-5.29 6.9-9.98 10.63-14.14z" fill="#3458ff"/>
  
  <!-- Eyes white background -->
  <path d="M108 102.35v22.22c0 14.55 11.8 26.34 26.34 26.34 7.17 0 13.66-2.86 18.41-7.5 4.75 4.64 11.25 7.5 18.41 7.5 14.55 0 26.34-11.79 26.34-26.34v-22.22c0-14.55-11.79-26.35-26.34-26.35-7.16 0-13.66 2.86-18.41 7.5-4.75-4.64-11.24-7.5-18.41-7.5-14.55 0-26.34 11.8-26.34 26.35z" fill="#fff"/>
  
  <!-- Eyes outline -->
  <path d="M197.51 102.35c0-14.32-11.43-25.98-25.67-26.34h-.68c-7.16 0-13.66 2.86-18.41 7.5l-.45-.43c-4.55-4.24-10.61-6.89-17.29-7.06h-.67c-14.55 0-26.34 11.8-26.34 26.35v22.22l.01.68c.35 14.01 11.64 25.3 25.65 25.66h.68c7.17 0 13.66-2.86 18.41-7.5 4.6 4.5 10.84 7.32 17.74 7.49h.67c14.32 0 25.97-11.43 26.34-25.67v-.68zm11 22.22c0 20.62-16.72 37.34-37.34 37.34-6.69 0-12.98-1.77-18.41-4.85-5.43 3.08-11.72 4.85-18.41 4.85-20.62 0-37.34-16.72-37.35-37.34v-22.22c0-20.63 16.72-37.35 37.35-37.35 6.69 0 12.98 1.77 18.41 4.85 5.43-3.08 11.72-4.85 18.41-4.85 20.63 0 37.35 16.72 37.35 37.35v22.22z" fill="#3458ff"/>
  
  <!-- Pupils -->
  <circle cx="138.79" cy="113.14" r="13.65" fill="#000"/>
  <circle cx="180.69" cy="113.14" r="13.65" fill="#000"/>
</svg>
